<?xml version="1.0" standalone="no"?>
<!DOCTYPE svg PUBLIC "-//W3C//DTD SVG 20010904//EN"
 "http://www.w3.org/TR/2001/REC-SVG-20010904/DTD/svg10.dtd">
<svg version="1.0" xmlns="http://www.w3.org/2000/svg"
 width="2229.000000pt" height="2229.000000pt" viewBox="0 0 2229.000000 2229.000000"
 preserveAspectRatio="xMidYMid meet">
<metadata>
Created by potrace 1.11, written by Peter Selinger 2001-2013
</metadata>
<g transform="translate(0.000000,2229.000000) scale(0.100000,-0.100000)"
fill="#000000" stroke="none">
<path d="M1830 18469 c-405 -52 -727 -214 -912 -459 -110 -145 -167 -315 -175
-520 -8 -212 24 -349 134 -562 298 -577 1049 -1043 1893 -1175 162 -25 564
-25 700 0 306 57 530 154 708 307 97 84 171 180 233 305 139 280 129 568 -32
890 -233 470 -807 901 -1464 1100 -158 48 -367 92 -523 110 -136 16 -452 18
-562 4z"/>
<path d="M13890 18296 c-200 -56 -332 -237 -332 -455 0 -335 295 -756 732
-1044 300 -198 614 -285 839 -232 179 43 318 189 352 370 87 470 -611 1223
-1261 1360 -85 18 -267 18 -330 1z"/>
<path d="M6186 17720 c-301 -35 -543 -150 -693 -329 -63 -74 -142 -232 -168
-331 -26 -100 -31 -268 -11 -373 89 -471 489 -927 1061 -1208 579 -285 1199
-319 1595 -88 191 111 348 313 401 515 27 103 29 285 4 399 -92 434 -485 880
-1018 1155 -239 123 -497 209 -732 244 -131 20 -340 27 -439 16z"/>
<path d="M9593 17096 c-263 -50 -447 -184 -552 -401 -59 -123 -75 -191 -75
-330 1 -243 89 -473 278 -725 281 -374 767 -680 1230 -772 156 -31 415 -31
528 0 173 47 271 103 383 217 39 40 85 97 104 129 148 247 126 577 -60 901
-266 464 -798 845 -1351 966 -122 26 -381 35 -485 15z"/>
<path d="M12525 16594 c-11 -2 -45 -9 -75 -15 -79 -15 -208 -80 -269 -135
-141 -127 -221 -327 -208 -524 25 -394 335 -837 797 -1140 118 -77 286 -160
405 -199 157 -52 245 -66 405 -65 129 1 154 4 225 27 202 67 359 216 416 396
30 93 36 241 14 356 -100 538 -706 1117 -1328 1271 -98 24 -327 41 -382 28z"/>
<path d="M15035 16150 c-204 -24 -357 -144 -436 -345 -20 -53 -23 -77 -23
-195 -1 -169 20 -247 110 -428 84 -169 173 -290 324 -443 234 -236 487 -396
755 -475 108 -31 304 -44 396 -25 190 40 350 189 404 375 26 90 17 272 -20
385 -73 226 -193 416 -395 625 -121 125 -215 203 -352 293 -262 172 -546 259
-763 233z"/>
<path d="M17022 15773 c-125 -29 -250 -145 -303 -280 -33 -83 -33 -254 -1
-368 113 -395 498 -827 915 -1025 308 -147 556 -142 732 13 244 217 172 645
-181 1067 -354 425 -835 671 -1162 593z"/>
<path d="M2541 15119 c-476 -53 -897 -255 -1145 -548 -164 -195 -257 -415
-286 -682 -26 -233 30 -495 156 -739 175 -337 517 -664 914 -874 738 -390
1646 -428 2279 -96 366 193 634 536 708 907 24 124 22 337 -5 463 -43 199
-135 405 -260 580 -88 124 -328 366 -462 465 -363 268 -784 438 -1265 511
-121 18 -515 27 -634 13z"/>
<path d="M7133 14680 c-313 -27 -583 -139 -780 -323 -208 -195 -333 -485 -333
-776 0 -379 192 -780 527 -1102 350 -335 819 -559 1288 -614 222 -26 400 -16
595 31 241 60 399 145 568 309 232 223 334 480 319 804 -32 694 -701 1394
-1540 1610 -207 54 -456 77 -644 61z"/>
<path d="M10690 14320 c-146 -21 -315 -84 -429 -162 -154 -105 -290 -307 -341
-503 -172 -660 435 -1518 1270 -1795 200 -67 300 -84 500 -83 157 0 185 3 275
27 184 48 333 134 456 262 108 114 160 203 206 351 24 79 27 104 27 248 1 217
-35 368 -139 577 -302 608 -988 1065 -1625 1083 -74 2 -164 0 -200 -5z"/>
<path d="M13664 14030 c-160 -20 -310 -89 -414 -191 -281 -275 -305 -682 -69
-1139 33 -63 90 -158 127 -210 75 -106 260 -302 369 -392 235 -192 517 -329
767 -373 110 -19 299 -19 388 0 253 53 468 242 545 480 34 108 43 299 19 427
-103 545 -604 1104 -1186 1321 -172 64 -393 95 -546 77z"/>
<path d="M16132 13766 c-103 -26 -194 -80 -270 -161 -124 -130 -174 -262 -174
-456 1 -240 109 -522 299 -776 263 -353 620 -609 973 -699 116 -29 321 -27
419 5 147 48 290 169 350 295 81 168 82 395 4 626 -147 434 -569 890 -998
1079 -163 72 -252 93 -410 97 -95 2 -157 -1 -193 -10z"/>
<path d="M18250 13571 c-179 -34 -327 -167 -382 -344 -33 -103 -31 -264 5
-399 47 -178 147 -375 280 -553 83 -111 334 -357 440 -432 110 -77 277 -163
384 -197 263 -82 485 -39 638 125 157 168 166 451 26 771 -142 322 -447 668
-756 858 -220 136 -468 202 -635 171z"/>
<path d="M20035 13386 c-160 -39 -285 -174 -316 -341 -53 -283 148 -712 496
-1060 299 -299 625 -456 863 -416 124 21 254 103 306 194 64 111 75 269 32
442 -32 124 -148 361 -239 488 -87 120 -210 260 -299 339 -314 281 -619 409
-843 354z"/>
<path d="M19725 10914 c-11 -2 -45 -9 -75 -15 -88 -18 -168 -64 -247 -144
-116 -116 -166 -246 -166 -435 -1 -188 48 -378 153 -595 269 -558 806 -998
1245 -1022 119 -7 192 9 305 64 275 134 363 472 230 884 -41 127 -152 350
-239 480 -257 384 -642 689 -963 764 -68 15 -210 27 -243 19z"/>
<path d="M17605 10894 c-85 -20 -117 -31 -170 -55 -168 -78 -299 -241 -355
-439 -158 -567 344 -1451 1015 -1788 298 -149 565 -170 790 -63 191 91 307
228 361 426 25 94 30 304 9 422 -78 443 -386 920 -785 1217 -170 127 -309 199
-486 252 -73 22 -113 27 -224 30 -74 1 -144 1 -155 -2z"/>
<path d="M15080 10880 c-212 -21 -380 -105 -524 -262 -107 -114 -170 -233
-212 -398 -27 -105 -27 -388 0 -510 89 -411 323 -796 661 -1087 135 -117 256
-198 400 -268 131 -65 224 -96 365 -125 201 -42 442 -15 603 66 231 117 377
298 444 551 23 86 26 117 26 263 0 132 -4 185 -21 266 -100 469 -401 912 -830
1222 -101 73 -333 191 -445 227 -150 48 -329 69 -467 55z"/>
<path d="M12070 10859 c-508 -36 -905 -407 -996 -933 -21 -120 -14 -371 15
-504 124 -578 550 -1108 1104 -1372 435 -207 858 -221 1217 -40 724 364 798
1337 163 2125 -326 404 -838 697 -1263 721 -47 3 -98 6 -115 7 -16 2 -73 0
-125 -4z"/>
<path d="M8260 10829 c-519 -59 -940 -350 -1165 -804 -104 -210 -145 -392
-146 -640 0 -185 25 -339 81 -509 240 -721 918 -1274 1695 -1382 162 -22 446
-15 590 16 371 79 694 281 910 569 322 428 362 1012 106 1564 -147 320 -427
636 -751 850 -394 260 -884 385 -1320 336z"/>
<path d="M3525 10799 c-881 -71 -1603 -590 -1849 -1329 -66 -199 -80 -290 -81
-525 0 -244 16 -350 86 -552 100 -288 262 -538 499 -766 298 -288 663 -491
1063 -593 526 -133 1061 -108 1546 73 492 183 901 549 1117 997 353 737 118
1600 -591 2166 -482 385 -1146 581 -1790 529z"/>
<path d="M19176 7664 c-180 -35 -364 -171 -466 -342 -115 -196 -150 -497 -90
-797 67 -338 263 -743 489 -1009 95 -111 280 -289 373 -359 167 -125 363 -219
520 -251 96 -20 271 -20 363 -1 39 8 115 37 172 65 280 138 416 418 400 820
-21 526 -331 1128 -784 1525 -321 282 -677 409 -977 349z"/>
</g>
</svg>
